/* XPM */
static char * gestosc_100_x_100_xpm[] = {
"100 100 9 1",
" 	c None",
".	c #FFFFFF",
"+	c #DBDBDB",
"@	c #B6B6B6",
"#	c #929292",
"$	c #6D6D6D",
"%	c #494949",
"&	c #242424",
"*	c #000000",
"....................................................................................................",
"....................................................................................................",
"....................................................................................................",
"....................................................................................................",
"....................................................................................................",
"....................................................................................................",
"......................................++++..........................................................",
"..................................+++@##$%@.........................................................",
"................................++@@@@##$%#.........................................................",
".............................++++++@@##$%%%+.++.....................................................",
"..........................++@@#@@@@@###%%%&$..+.....................................................",
".........................+@@#$%#@@@####$$%&&........................................................",
"........................@@@@##%#@@@@@#$$$$&&.........+...........................++.................",
".......................+@@##@##@@@++@$%%%%&*&#......+++@+++++.++...........+@@@++++++...............",
".....................+#$@+@@@@@@@@++#%%%%%&&&&%$#@@@@@++++++++++++++++@@++++##@+++++@@+.............",
".................+@#$$&%#@@@@@+++@#@@#$$$$$%&$###$@#@@+++++++++#@@@@++@#@+++##@@++@+@@+.............",
".............+@#$$####%$#@@@@@++@@%@@#####$$%$#$$$#&@@+++@@++++++@##@+@@@+++++@@@+$@++++............",
".........++@##$######@#@@@+@@@@@@$$@@@####$$$$$#$$##@#@+@##@+@+@@@##@@@@++++++$$@+$@++++............",
".......++$$@@##@@@###+@@@@+@@##@++@@@@####$$$$#####@@$#++@@##++@@@@#@@++@+++++$#@#++++++............",
"....+$##@##@#$#@+@@@@+++++++@#@++++@@@@@@$$%$$#$$##@+##$#@@#$#@@@+@@++++++++++@@+@++++++............",
"....+%%#@@#@#$#@@++++@++++++++++++@@@@@##$$%$%$%$##@+@@$$@+@$$####@@@+@@+++++@@@++@#@++++...........",
".....@#+@@@@##@@++@@@@@@@++++++++@@@@########$$$$##++@@$$@@#$$##$$#+@@@@@@+++@@+++@#@++++...........",
"......+++++#$#++@@@@@##@@++++++++@@@###@@@@@#$$##$#@@+@#@@@@%$####@++@@@#@+++@@@@+++++@@+...........",
".....@##+@#@$$@+@#@+@@@@++##+@+++@###$$@@++@$$$$#$##@+@@#@@@#@@@@++++++@##@+@@@@+++++@##++..........",
".....#&%$$$@##@+@$#++#@++++++@@+@@@@#$#@@+@@$$#####@@+@@@@@@@@+@@@@++++@##@+@@+++++++@@@++..........",
".....#&&%$$##@@@+@####@@++++@@##@@#@#$@+@@@@#$###@@+#@@@@@@@@@++@#@++++@##@+@#@++++++++++@..........",
".....@&*&$$@@@@@+@####@@@++++@@@@####@@@@####$#@##@@@@$#@@@@@#+++@@@+@@@@#@@@@@++++++++@$#+.........",
".....+$&&$@@@@@@++@#@+++@@@@@@++@$$##@@###$$$%$###@@####@@@@##@++++@@@@@+@#@@@+++#$@+@+#$#+.........",
".....+$$#@@$@@@@@++++++++@@@@@@+###@#####$%$$$####@#$$##@@@@##@+++++##@@+@#@@@@++@#@@#$$#++.........",
"......$%#@##@@#@@++++++@@@@@@#@@#######$$$$##############@@@#@+++++@@#@@@@@@@@@+++@##$$$@++.........",
".....+#$##$#@@$##++++++@#@@@@@@###$###$$$$$$$###@##$#@##@@@@@@+++@@@@##@@@@$#@@++@@#$%%$++++........",
".....+@@@#$#@@#$#+++++++@@#$###$$#$%$$%&$$$$$###@##$#@##@@#$#@@+++@@@###@@#%##@++@#$$&%@++++........",
"....+@@@@@$#@@@@@++++++@##$%$#$$$#%%%%&&$$$$$$$######@@@@@#$#@@++@@@@##$#@@###@++@#$#%#+++++........",
"...+@##@#$$$$#@@++++@++#$$$#@@#####$$%%%$$$%%%$@###$###$$#@##@@@##@@@#$$#@@@@@@++@%%#$@++++++.......",
"...+@#@@#$#@$$##@+++#@@$###@@######$$$$$$$@$&%$####@##@#$#@@##@@##@@++@@@@@@@@@#@@##@##++++++.......",
"...+@@@@$$@@@####@@##@+@@#@@@@#####$$#$$###@@$$#$#@@@@@@#@@@@###@@#@@#@@@@@@@@@##@@@+++++++++.......",
"....+@@#$#@@@@@####@@++@##@@@@@@@#$$$$%$##$$#%$#$$##@##@@@@@##%#@###@@@@@###@@###@@+++@++++++.......",
".....+@#$#@#%$#####@@##@####$###@#$###$%%$##$#$##$#####@@@###@##@@##@@@###$##@@@@@#@++#++@@++.......",
"......+####$$%#######$$$##$#$$#####@@@$%%$@###$#$$########@##@##@@%$@###@@@$#@+@#@++++++++++........",
"......+$@@@@@#@###$$###$#$$$$$#####@#$%$$$$$$$$%&$####$$######@@#@$#@#$#####@@@@@@@+++++++..........",
".......++@@@+++@@@#$###$$%%$%$####$$$$$$$#$##$$$$####%%$$#@#$#@#$###@$%$$#@@@@@@@@+++++++...........",
"......+@@@@#@++##@@###$$$%%%&%$$##%$$$####$###$##@@@@$&$$##@@##$$$$$#$%$$$@@@@@@@@@@+++++...........",
"......#$#@@@#@#%$@+@@#$##%&&*&%%$#$$$#@##$#####$#@@###%$$$####$%%%%%%$%#@#@####@@@@#++++............",
"......#$#@++@@@$$@@+@$#$$%&**&%%%$%$#@#$$$$$##########$$#######%%&%&&%%@@@@###@@@@@@+++.............",
"......+@@+++++@%###$%%$%%%%&&&%%#%&%$$#$%$$$##$######@#$###@@@#%%&*&&$$##@@@#@@@@@#@++@.............",
".......+++++++#%##$$$%%%%$%%&%%%$$%$$$$%&%$$$$%###$#@#$####$##$%&***&&%$###@####@#$##@@@+...........",
".......++++++++#$$$$$$$$#$%%%%$%%%$###$$&%$$%$$##$$$#$$###$%%%&&&***&%%%$$###%&$@@#@##@++@+.........",
"........++#$###$%$$$%$$##$$$$&$$$$$###$$%$$$$##@@##########$$$&&&&**&%%$$$##$$###@@@###@@@#+........",
".......++#$@@#$%$##$%%$$$%$$%%$#$$$####$$$$$###@####@@@#$$##$%&&%&&&&%%$$##@######@@@#%#@@@+........",
".......@++++@#%&#@@##$$$$$$#$###$&%######$$$@####$######$$##$$$$%%&%%%$%$######$####@@@@@@@.........",
".......++@@+@@$&$@@@@$$$$$$$%$#$$&%$$$$$#$$#@###@#$$$$$#$$$##$$$$%%%%$$%$$###$$$###@@@+++++.........",
".......++%%#@@$%$#@@@$%$$$$$%%$#$%$%&%$$######$$##$%$$##$$#@@#$#$%$$$##$$$#@#$$##$#@@@+++++.........",
".......+@$$#@@#$$#@@@$%#$$$#%$$#%$$$%$$$$$###@###%&*&%$$$#######$$#$$##$$$$#$$$$#$#@@@@++++.........",
".......+@@##@@@$$$######$$$$$$$$%%%%$$&%%$###@@@#$%**&%%$#######$##$@@##$##$$##$$##@##@++++.........",
".......+@@#$$##$###$%#@#%$$%$$$$%%%%%$%%$$$#####$$%*&%$$$#@####$$#$#@@$$###%$########@+++++.........",
".......@@+@##@$$###$##@@###%%$$##$%%$$#$##$#$%%%%%$$%$#$$##@#@#@@#$##@$%$#%%#@#####$#+++++@+........",
".........+##@+@###$%%#@@@@@#$#####$%$$$######$$$$$##$$$#$%#@@@@@##$$$##$$$#$#####$$#@@++++@+........",
"..........@@@++@+@#%$###@@########@#$%$$#@#######$$##$%#$$$##$####$%%#$####%$$###$$##@++++++........",
".........++++++@+@##$%#######%$##$##$%$##@@$####$$###$&$###%%$#$#$%&&%$$$##$%$$$%%$$###@@+++........",
".........+@+++@#@@####$$$$%$$%##$$$##$%$##$#####$#$$$$%$#@#%%$$##$$&%$$$$###$$%%%%%%&$##@@@@+.......",
".........+$#$$$$$###$$$$$%%%%$$##$%$#%%%$$$$####$###$$$$#@####$##%$%%$###@##$%$$&*&$$$##@@##@+......",
".........@$$$$#$$###%$#$$$$%%%%$$####$$$$$$%%#######$$#@@@@#$$$##%$$$####@@#$%$$%&%$$%###$%#@@......",
".........#$#$$$$####$$@#$$%&*&%%$$#####$$$$%$#$$$##$$$#@@@@#%%$$$&$$####$@#$$$$$%$$##$##$$$#@@+.....",
"........+###$%####@@######$&**&%$$#$######$$#$%$###%$#@@@@@#$$$$$&%$$####@@#$$$$$$#@@#@$##@@@+@.....",
"........$@++$###$##@#$%$##%%%%%%%$$$@##$%#$$$$$$#@#$$#@@@@@#$$%$$%$%$$$#@@@##$$$$$#@@@#$#@@@@@@@....",
".......+$+..###$%$$$#$&%$#%%$$$%$##@@@#%$$##$$$$$$$$#@@@@###$%%%%$$%$$&$#####$$$###@#@#$#@@@@@#@+...",
"........+...+$$%%%$##%%%$$$$$#$$$###@@@#@###$$%%%%%$#@+#$###%%&&%%$%$$$$######$$##@@@@###@@@@#$+....",
".............+@$%%$$$&%%$###$%#$$$######@#$$$$%%&&%$####$$$$%%&%$%%$$#$$##$############$%$#@###@+...",
"................+#$#%&$$%%$#$%$$$$$$%%$$##$##$%&&%$####@@#$$$$%%$$##$$$$$$%$####$####$$%%$####@@+...",
"..................@#$#%%&%$#$##$$$$$%%$%%$$#$$$%%%$##@@#@@#$%$$$#@@@#$$$$%&%$##$$@@#####$####@@@+...",
"..................+...+%$#%$$$#$$$$$%&%$%$$$%%$$$%%$$#@#@@#$%$##$###$$$$$%%$%%$$$###@@########@@+...",
"......................+$$#%%$###$$$$$%%$%$$%$$$$$$&%$###@$$$###$%###%$$$$&$#$&%$#@#$@@#######@@++...",
".....................##$$$$$$$$%%###$%%%%%$#$$%%%%%%%$$##$#@##$%%%##$$$$$%%##$%$#@@@##@@@#$#@@++....",
"....................+@$$$$####$&&$##$%%%%$$$%%&&%%%%%%$$$$#@##$$%$$##%%$$$$##$%%$#@##@@@@@##@.......",
"......................#$#$$@..#%&%$#$$$%&$$%&&*&&&&%%%%%$%$##$##$###$$%%$$$##$%%%#@##@@@@@@@+.......",
".......................@##$#+..@$$@#$#$%%$$%******&&%&%$$%%#$$$##$$$%$$%$$%$$$%%%$##@@@@@@++........",
".......................+##@@....++.@$##$$$$%&&&***&&&&%%%%%$%%%$$%%%$$$%$$%%%%%%%%$##@###@+.........",
"........................@@+.......@$$#$$$%%&&&&&*&&&&&&&&%%%%%$$$%%%%$$%$$%%%&%%%%%####@@+..........",
"..................................+#$$$%&%&&&&&&&&&&&&&&&&&%%$$$$%%%%$%%%%%%&&&&%&%%$##@+...........",
"...................................+$$#%&&&&&&%&&&&&%%&&***&&$%%%%&&%%%&%%%&&&%%%%%%$$$#+...........",
"....................................++.+$&&&&&&&&&&%&%&&&&&&%&%&%%&&%%%%%$%%%%%$$%$%%$#@............",
"........................................++#%&&&&&&&&&&&&&&&%%%%%%%%%%$$%%$%%%$$$$$$$%%#.............",
"...........................................@&&&&&&&&&&&&&&%%%%$%%%%%%$%%%%%%%$$$$###%%+.............",
"...........................................+&&&&&%%%%%%%%%%%%%%%%%%%%%%&%%%%%%$##@@#$@..............",
"............................................$%%%&&%$%%%%%%%$%&%%%%%%%&%%%&&&%&$$@+@@@...............",
".............................................@%%%&%%$$%%%%%%$%%&&%%%%$$$%%%&%%%%#@@@................",
".............................................+$%%%%#@$$%%%$$$%%&&%%%#+@@##$%$$$%$#@@................",
"..............................................@#$#+..$$%%%%$$$%%%$#$@++++#$##@#$%$@@+...............",
"...............................................@$@...+$%%%%$$$$$$$$$++...+@+@+@##@@@+...............",
"................................................+.....+@%%%$#+++.#$$+........++@+++++...............",
".......................................................+%&$+......++..........+++++++...............",
".......................................................+$%#....................++++++...............",
".......................................................++.+......................++++...............",
"....................................................................................++..............",
"....................................................................................................",
"....................................................................................................",
"....................................................................................................",
"....................................................................................................",
"....................................................................................................",
"...................................................................................................."};
