/* XPM */
static char * sample_2_x_3_xpm[] = {
"2 3 2 1",
"X	c #FFFFFF",
"O	c #000000",
"XX",
"OO",
"XX"};
